ffmpeg started on 2025-05-28 at 20:41:07
Report written to "D:\Convert\FFMetrics\reports\ssim_report-6.txt"
Log level: 32
Command line:
ffmpeg -hide_banner -nostdin -i "G:\\\xc0\xed\xe8\xec\xe5\\\xce\xed\xe3\xee\xe8\xed\xe3\xe8\\!_36_\xce\xf1\xe5\xed\xfc_2024\\JamClub\\\xc8\xf1\xf2\xee\xf0\xe8\xff \xee \xf2\xee\xec, \xea\xe0\xea \xff \xef\xf0\xe8\xf8\xb8\xeb \xed\xe0 \xe2\xe5\xf7\xe5\xf0\xe8\xed\xea\xf3, \xe0 \xf2\xe0\xec \xed\xe5 \xe1\xfb\xeb\xee \xed\xe8 \xee\xe4\xed\xee\xe9 \xe6\xe5\xed\xf9\xe8\xed\xfb\\JamClub_Goukon_ni_Ittara_Onna_ga_Inakatta_Hanashi_06_1080p_HEVC.mkv" -i "G:\\\xc0\xed\xe8\xec\xe5\\\xce\xed\xe3\xee\xe8\xed\xe3\xe8\\!_36_\xce\xf1\xe5\xed\xfc_2024\\JamClub\\\xc8\xf1\xf2\xee\xf0\xe8\xff \xee \xf2\xee\xec, \xea\xe0\xea \xff \xef\xf0\xe8\xf8\xb8\xeb \xed\xe0 \xe2\xe5\xf7\xe5\xf0\xe8\xed\xea\xf3, \xe0 \xf2\xe0\xec \xed\xe5 \xe1\xfb\xeb\xee \xed\xe8 \xee\xe4\xed\xee\xe9 \xe6\xe5\xed\xf9\xe8\xed\xfb\\JamClub_Goukon_ni_Ittara_Onna_ga_Inakatta_Hanashi_06_1080p.mp4" -lavfi "[0:v]settb=AVTB,setpts=PTS-STARTPTS,format=pix_fmts=yuv420p10,fps=24000/1001,scale=1920:1080:flags=bicubic[main];[1:v]settb=AVTB,setpts=PTS-STARTPTS,format=pix_fmts=yuv420p,fps=24000/1001,scale=1920:1080:flags=bicubic[ref];[main][ref]ssim=eof_action=endall:stats_file='D\\:/Convert/FFMetrics/logs/ssim_logfile-6.txt'" -f null -
Input #0, matroska,webm, from 'G:\Аниме\Онгоинги\!_36_Осень_2024\JamClub\История о том, как я пришёл на вечеринку, а там не было ни одной женщины\JamClub_Goukon_ni_Ittara_Onna_ga_Inakatta_Hanashi_06_1080p_HEVC.mkv':
  Metadata:
    COMPATIBLE_BRANDS: isomiso2avc1mp41
    MAJOR_BRAND     : isom
    MINOR_VERSION   : 512
    ENCODER         : Lavf61.7.100
  Duration: 00:24:03.69, start: -0.001000, bitrate: 940 kb/s
  Stream #0:0: Video: hevc (Main 10), yuv420p10le(tv, bt709, progressive), 1920x1080 [SAR 1:1 DAR 16:9], 23.98 fps, 23.98 tbr, 1k tbn (default)
      Metadata:
        HANDLER_NAME    : VideoHandler
        VENDOR_ID       : [0][0][0][0]
        ENCODER         : Lavc61.19.100 libx265
        BPS             : 743238
        DURATION        : 00:24:03.650708333
        NUMBER_OF_FRAMES: 34613
        NUMBER_OF_BYTES : 134122087
        _STATISTICS_WRITING_APP: mkvpropedit v66.0.0 ('Josie') 64-bit
        _STATISTICS_WRITING_DATE_UTC: 2025-05-28 10:24:47
        _STATISTICS_TAGS: BPS DURATION NUMBER_OF_FRAMES NUMBER_OF_BYTES
  Stream #0:1(eng): Audio: aac (LC), 48000 Hz, stereo, fltp (default)
      Metadata:
        HANDLER_NAME    : SoundHandler
        VENDOR_ID       : [0][0][0][0]
        ENCODER         : Lavc61.19.100 aac
        BPS             : 193459
        DURATION        : 00:24:03.651000000
        NUMBER_OF_FRAMES: 67672
        NUMBER_OF_BYTES : 34911063
        _STATISTICS_WRITING_APP: mkvpropedit v66.0.0 ('Josie') 64-bit
        _STATISTICS_WRITING_DATE_UTC: 2025-05-28 10:24:47
        _STATISTICS_TAGS: BPS DURATION NUMBER_OF_FRAMES NUMBER_OF_BYTES
Input #1, mov,mp4,m4a,3gp,3g2,mj2, from 'G:\Аниме\Онгоинги\!_36_Осень_2024\JamClub\История о том, как я пришёл на вечеринку, а там не было ни одной женщины\JamClub_Goukon_ni_Ittara_Onna_ga_Inakatta_Hanashi_06_1080p.mp4':
  Metadata:
    major_brand     : isom
    minor_version   : 512
    compatible_brands: isomiso2avc1mp41
    encoder         : Lavf60.16.100
  Duration: 00:24:03.67, start: 0.000000, bitrate: 2464 kb/s
  Stream #1:0[0x1](und): Video: h264 (High) (avc1 / 0x31637661), yuv420p(progressive), 1920x1080 [SAR 1:1 DAR 16:9], 2266 kb/s, 23.98 fps, 23.98 tbr, 90k tbn (default)
      Metadata:
        handler_name    : VideoHandler
        vendor_id       : [0][0][0][0]
  Stream #1:1[0x2](eng): Audio: aac (LC) (mp4a / 0x6134706D), 48000 Hz, stereo, fltp, 191 kb/s (default)
      Metadata:
        handler_name    : SoundHandler
        vendor_id       : [0][0][0][0]
Stream mapping:
  Stream #0:0 (hevc) -> settb:default
  Stream #1:0 (h264) -> settb:default
  ssim:default -> Stream #0:0 (wrapped_avframe)
  Stream #0:1 -> #0:1 (aac (native) -> pcm_s16le (native))
Output #0, null, to 'pipe:':
  Metadata:
    COMPATIBLE_BRANDS: isomiso2avc1mp41
    MAJOR_BRAND     : isom
    MINOR_VERSION   : 512
    encoder         : Lavf61.7.100
  Stream #0:0: Video: wrapped_avframe, yuv420p10le(tv, bt709, progressive), 1920x1080 [SAR 1:1 DAR 16:9], q=2-31, 200 kb/s, 23.98 fps, 23.98 tbn
      Metadata:
        encoder         : Lavc61.19.100 wrapped_avframe
  Stream #0:1(eng): Audio: pcm_s16le, 48000 Hz, stereo, s16, 1536 kb/s (default)
      Metadata:
        HANDLER_NAME    : SoundHandler
        VENDOR_ID       : [0][0][0][0]
        _STATISTICS_TAGS: BPS DURATION NUMBER_OF_FRAMES NUMBER_OF_BYTES
        BPS             : 193459
        DURATION        : 00:24:03.651000000
        NUMBER_OF_FRAMES: 67672
        NUMBER_OF_BYTES : 34911063
        _STATISTICS_WRITING_APP: mkvpropedit v66.0.0 ('Josie') 64-bit
        _STATISTICS_WRITING_DATE_UTC: 2025-05-28 10:24:47
        encoder         : Lavc61.19.100 pcm_s16le
frame=  115 fps=0.0 q=-0.0 size=N/A time=00:00:04.79 bitrate=N/A speed=9.33x    frame=  284 fps=274 q=-0.0 size=N/A time=00:00:11.84 bitrate=N/A speed=11.4x    frame=  481 fps=312 q=-0.0 size=N/A time=00:00:20.06 bitrate=N/A speed=  13x    frame=  761 fps=368 q=-0.0 size=N/A time=00:00:31.74 bitrate=N/A speed=15.3x    frame= 1006 fps=391 q=-0.0 size=N/A time=00:00:41.95 bitrate=N/A speed=16.3x    frame= 1277 fps=412 q=-0.0 size=N/A time=00:00:53.26 bitrate=N/A speed=17.2x    frame= 1542 fps=427 q=-0.0 size=N/A time=00:01:04.31 bitrate=N/A speed=17.8x    frame= 1812 fps=439 q=-0.0 size=N/A time=00:01:15.57 bitrate=N/A speed=18.3x    frame= 2085 fps=449 q=-0.0 size=N/A time=00:01:26.96 bitrate=N/A speed=18.7x    frame= 2363 fps=458 q=-0.0 size=N/A time=00:01:38.55 bitrate=N/A speed=19.1x    frame= 2634 fps=465 q=-0.0 size=N/A time=00:01:49.85 bitrate=N/A speed=19.4x    frame= 2893 fps=467 q=-0.0 size=N/A time=00:02:00.66 bitrate=N/A speed=19.5x    frame= 3165 fps=472 q=-0.0 size=N/A time=00:02:12.00 bitrate=N/A speed=19.7x    frame= 3436 fps=476 q=-0.0 size=N/A time=00:02:23.30 bitrate=N/A speed=19.9x    frame= 3645 fps=471 q=-0.0 size=N/A time=00:02:32.02 bitrate=N/A speed=19.6x    frame= 3842 fps=466 q=-0.0 size=N/A time=00:02:40.24 bitrate=N/A speed=19.4x    frame= 4094 fps=467 q=-0.0 size=N/A time=00:02:50.75 bitrate=N/A speed=19.5x    frame= 4337 fps=467 q=-0.0 size=N/A time=00:03:00.88 bitrate=N/A speed=19.5x    frame= 4558 fps=465 q=-0.0 size=N/A time=00:03:10.10 bitrate=N/A speed=19.4x    frame= 4787 fps=464 q=-0.0 size=N/A time=00:03:19.65 bitrate=N/A speed=19.4x    frame= 4997 fps=461 q=-0.0 size=N/A time=00:03:28.41 bitrate=N/A speed=19.2x    frame= 5243 fps=462 q=-0.0 size=N/A time=00:03:38.67 bitrate=N/A speed=19.3x    frame= 5483 fps=462 q=-0.0 size=N/A time=00:03:48.68 bitrate=N/A speed=19.3x    frame= 5725 fps=463 q=-0.0 size=N/A time=00:03:58.78 bitrate=N/A speed=19.3x    frame= 5993 fps=465 q=-0.0 size=N/A time=00:04:09.95 bitrate=N/A speed=19.4x    frame= 6249 fps=466 q=-0.0 size=N/A time=00:04:20.63 bitrate=N/A speed=19.5x    frame= 6505 fps=467 q=-0.0 size=N/A time=00:04:31.31 bitrate=N/A speed=19.5x    frame= 6762 fps=468 q=-0.0 size=N/A time=00:04:42.03 bitrate=N/A speed=19.5x    frame= 7022 fps=470 q=-0.0 size=N/A time=00:04:52.87 bitrate=N/A speed=19.6x    frame= 7270 fps=470 q=-0.0 size=N/A time=00:05:03.21 bitrate=N/A speed=19.6x    frame= 7537 fps=471 q=-0.0 size=N/A time=00:05:14.35 bitrate=N/A speed=19.6x    frame= 7806 fps=473 q=-0.0 size=N/A time=00:05:25.57 bitrate=N/A speed=19.7x    frame= 8058 fps=473 q=-0.0 size=N/A time=00:05:36.08 bitrate=N/A speed=19.7x    frame= 8321 fps=474 q=-0.0 size=N/A time=00:05:47.05 bitrate=N/A speed=19.8x    frame= 8567 fps=474 q=-0.0 size=N/A time=00:05:57.31 bitrate=N/A speed=19.8x    frame= 8817 fps=475 q=-0.0 size=N/A time=00:06:07.74 bitrate=N/A speed=19.8x    frame= 9064 fps=475 q=-0.0 size=N/A time=00:06:18.04 bitrate=N/A speed=19.8x    frame= 9327 fps=476 q=-0.0 size=N/A time=00:06:29.01 bitrate=N/A speed=19.8x    frame= 9594 fps=477 q=-0.0 size=N/A time=00:06:40.14 bitrate=N/A speed=19.9x    frame= 9833 fps=477 q=-0.0 size=N/A time=00:06:50.11 bitrate=N/A speed=19.9x    frame=10106 fps=478 q=-0.0 size=N/A time=00:07:01.50 bitrate=N/A speed=19.9x    frame=10371 fps=479 q=-0.0 size=N/A time=00:07:12.55 bitrate=N/A speed=  20x    frame=10637 fps=479 q=-0.0 size=N/A time=00:07:23.65 bitrate=N/A speed=  20x    frame=10901 fps=480 q=-0.0 size=N/A time=00:07:34.66 bitrate=N/A speed=  20x    frame=11180 fps=481 q=-0.0 size=N/A time=00:07:46.29 bitrate=N/A speed=20.1x    frame=11448 fps=482 q=-0.0 size=N/A time=00:07:57.47 bitrate=N/A speed=20.1x    frame=11702 fps=482 q=-0.0 size=N/A time=00:08:08.07 bitrate=N/A speed=20.1x    frame=11977 fps=483 q=-0.0 size=N/A time=00:08:19.54 bitrate=N/A speed=20.2x    frame=12258 fps=484 q=-0.0 size=N/A time=00:08:31.26 bitrate=N/A speed=20.2x    frame=12485 fps=484 q=-0.0 size=N/A time=00:08:40.72 bitrate=N/A speed=20.2x    frame=12750 fps=484 q=-0.0 size=N/A time=00:08:51.78 bitrate=N/A speed=20.2x    frame=12997 fps=484 q=-0.0 size=N/A time=00:09:02.08 bitrate=N/A speed=20.2x    frame=13258 fps=485 q=-0.0 size=N/A time=00:09:12.96 bitrate=N/A speed=20.2x    frame=13549 fps=486 q=-0.0 size=N/A time=00:09:25.10 bitrate=N/A speed=20.3x    frame=13819 fps=486 q=-0.0 size=N/A time=00:09:36.36 bitrate=N/A speed=20.3x    frame=14079 fps=487 q=-0.0 size=N/A time=00:09:47.21 bitrate=N/A speed=20.3x    frame=14318 fps=486 q=-0.0 size=N/A time=00:09:57.17 bitrate=N/A speed=20.3x    frame=14569 fps=486 q=-0.0 size=N/A time=00:10:07.64 bitrate=N/A speed=20.3x    frame=14769 fps=485 q=-0.0 size=N/A time=00:10:15.99 bitrate=N/A speed=20.2x    frame=14964 fps=483 q=-0.0 size=N/A time=00:10:24.12 bitrate=N/A speed=20.1x    frame=15225 fps=483 q=-0.0 size=N/A time=00:10:35.00 bitrate=N/A speed=20.2x    frame=15457 fps=483 q=-0.0 size=N/A time=00:10:44.68 bitrate=N/A speed=20.1x    frame=15685 fps=482 q=-0.0 size=N/A time=00:10:54.19 bitrate=N/A speed=20.1x    frame=15904 fps=481 q=-0.0 size=N/A time=00:11:03.32 bitrate=N/A speed=20.1x    frame=16174 fps=482 q=-0.0 size=N/A time=00:11:14.59 bitrate=N/A speed=20.1x    frame=16438 fps=482 q=-0.0 size=N/A time=00:11:25.60 bitrate=N/A speed=20.1x    frame=16660 fps=481 q=-0.0 size=N/A time=00:11:34.86 bitrate=N/A speed=20.1x    frame=16912 fps=481 q=-0.0 size=N/A time=00:11:45.37 bitrate=N/A speed=20.1x    frame=17183 fps=482 q=-0.0 size=N/A time=00:11:56.67 bitrate=N/A speed=20.1x    frame=17442 fps=482 q=-0.0 size=N/A time=00:12:07.47 bitrate=N/A speed=20.1x    frame=17706 fps=483 q=-0.0 size=N/A time=00:12:18.48 bitrate=N/A speed=20.1x    frame=17978 fps=483 q=-0.0 size=N/A time=00:12:29.83 bitrate=N/A speed=20.2x    frame=18227 fps=483 q=-0.0 size=N/A time=00:12:40.21 bitrate=N/A speed=20.2x    frame=18468 fps=483 q=-0.0 size=N/A time=00:12:50.31 bitrate=N/A speed=20.1x    frame=18731 fps=483 q=-0.0 size=N/A time=00:13:01.23 bitrate=N/A speed=20.2x    frame=18972 fps=483 q=-0.0 size=N/A time=00:13:11.29 bitrate=N/A speed=20.2x    frame=19225 fps=483 q=-0.0 size=N/A time=00:13:21.84 bitrate=N/A speed=20.2x    frame=19476 fps=483 q=-0.0 size=N/A time=00:13:32.31 bitrate=N/A speed=20.2x    frame=19705 fps=483 q=-0.0 size=N/A time=00:13:41.86 bitrate=N/A speed=20.1x    frame=19951 fps=483 q=-0.0 size=N/A time=00:13:52.12 bitrate=N/A speed=20.1x    frame=20178 fps=482 q=-0.0 size=N/A time=00:14:01.59 bitrate=N/A speed=20.1x    frame=20437 fps=483 q=-0.0 size=N/A time=00:14:12.39 bitrate=N/A speed=20.1x    frame=20709 fps=483 q=-0.0 size=N/A time=00:14:23.73 bitrate=N/A speed=20.1x    frame=20974 fps=483 q=-0.0 size=N/A time=00:14:34.79 bitrate=N/A speed=20.2x    frame=21177 fps=482 q=-0.0 size=N/A time=00:14:43.25 bitrate=N/A speed=20.1x    frame=21424 fps=482 q=-0.0 size=N/A time=00:14:53.55 bitrate=N/A speed=20.1x    frame=21660 fps=482 q=-0.0 size=N/A time=00:15:03.40 bitrate=N/A speed=20.1x    frame=21885 fps=481 q=-0.0 size=N/A time=00:15:12.78 bitrate=N/A speed=20.1x    frame=22156 fps=482 q=-0.0 size=N/A time=00:15:24.08 bitrate=N/A speed=20.1x    frame=22400 fps=482 q=-0.0 size=N/A time=00:15:34.26 bitrate=N/A speed=20.1x    frame=22618 fps=481 q=-0.0 size=N/A time=00:15:43.35 bitrate=N/A speed=20.1x    frame=22895 fps=482 q=-0.0 size=N/A time=00:15:54.91 bitrate=N/A speed=20.1x    frame=23164 fps=482 q=-0.0 size=N/A time=00:16:06.13 bitrate=N/A speed=20.1x    frame=23428 fps=483 q=-0.0 size=N/A time=00:16:17.14 bitrate=N/A speed=20.1x    frame=23691 fps=483 q=-0.0 size=N/A time=00:16:28.11 bitrate=N/A speed=20.1x    frame=23950 fps=483 q=-0.0 size=N/A time=00:16:38.91 bitrate=N/A speed=20.1x    frame=24224 fps=483 q=-0.0 size=N/A time=00:16:50.34 bitrate=N/A speed=20.2x    frame=24489 fps=484 q=-0.0 size=N/A time=00:17:01.39 bitrate=N/A speed=20.2x    frame=24758 fps=484 q=-0.0 size=N/A time=00:17:12.61 bitrate=N/A speed=20.2x    frame=25017 fps=484 q=-0.0 size=N/A time=00:17:23.41 bitrate=N/A speed=20.2x    frame=25292 fps=485 q=-0.0 size=N/A time=00:17:34.88 bitrate=N/A speed=20.2x    frame=25549 fps=485 q=-0.0 size=N/A time=00:17:45.60 bitrate=N/A speed=20.2x    frame=25832 fps=486 q=-0.0 size=N/A time=00:17:57.40 bitrate=N/A speed=20.3x    frame=26078 fps=486 q=-0.0 size=N/A time=00:18:07.66 bitrate=N/A speed=20.3x    frame=26322 fps=485 q=-0.0 size=N/A time=00:18:17.84 bitrate=N/A speed=20.2x    frame=26561 fps=485 q=-0.0 size=N/A time=00:18:27.81 bitrate=N/A speed=20.2x    frame=26807 fps=485 q=-0.0 size=N/A time=00:18:38.07 bitrate=N/A speed=20.2x    frame=27071 fps=485 q=-0.0 size=N/A time=00:18:49.08 bitrate=N/A speed=20.2x    frame=27352 fps=486 q=-0.0 size=N/A time=00:19:00.80 bitrate=N/A speed=20.3x    frame=27609 fps=486 q=-0.0 size=N/A time=00:19:11.52 bitrate=N/A speed=20.3x    frame=27881 fps=486 q=-0.0 size=N/A time=00:19:22.87 bitrate=N/A speed=20.3x    frame=28150 fps=487 q=-0.0 size=N/A time=00:19:34.08 bitrate=N/A speed=20.3x    frame=28418 fps=487 q=-0.0 size=N/A time=00:19:45.26 bitrate=N/A speed=20.3x    frame=28683 fps=487 q=-0.0 size=N/A time=00:19:56.32 bitrate=N/A speed=20.3x    frame=28934 fps=487 q=-0.0 size=N/A time=00:20:06.78 bitrate=N/A speed=20.3x    frame=29203 fps=488 q=-0.0 size=N/A time=00:20:18.00 bitrate=N/A speed=20.3x    frame=29484 fps=488 q=-0.0 size=N/A time=00:20:29.72 bitrate=N/A speed=20.4x    frame=29732 fps=488 q=-0.0 size=N/A time=00:20:40.07 bitrate=N/A speed=20.4x    frame=29988 fps=488 q=-0.0 size=N/A time=00:20:50.74 bitrate=N/A speed=20.4x    frame=30232 fps=488 q=-0.0 size=N/A time=00:21:00.92 bitrate=N/A speed=20.4x    frame=30463 fps=488 q=-0.0 size=N/A time=00:21:10.56 bitrate=N/A speed=20.3x    frame=30711 fps=488 q=-0.0 size=N/A time=00:21:20.90 bitrate=N/A speed=20.3x    frame=30989 fps=488 q=-0.0 size=N/A time=00:21:32.49 bitrate=N/A speed=20.4x    frame=31239 fps=488 q=-0.0 size=N/A time=00:21:42.92 bitrate=N/A speed=20.3x    frame=31453 fps=487 q=-0.0 size=N/A time=00:21:51.85 bitrate=N/A speed=20.3x    frame=31696 fps=487 q=-0.0 size=N/A time=00:22:01.98 bitrate=N/A speed=20.3x    frame=31943 fps=487 q=-0.0 size=N/A time=00:22:12.28 bitrate=N/A speed=20.3x    frame=32201 fps=487 q=-0.0 size=N/A time=00:22:23.05 bitrate=N/A speed=20.3x    frame=32414 fps=487 q=-0.0 size=N/A time=00:22:31.93 bitrate=N/A speed=20.3x    frame=32665 fps=487 q=-0.0 size=N/A time=00:22:42.40 bitrate=N/A speed=20.3x    frame=32908 fps=486 q=-0.0 size=N/A time=00:22:52.53 bitrate=N/A speed=20.3x    frame=33140 fps=486 q=-0.0 size=N/A time=00:23:02.21 bitrate=N/A speed=20.3x    frame=33337 fps=485 q=-0.0 size=N/A time=00:23:10.43 bitrate=N/A speed=20.2x    frame=33559 fps=485 q=-0.0 size=N/A time=00:23:19.68 bitrate=N/A speed=20.2x    frame=33811 fps=485 q=-0.0 size=N/A time=00:23:30.20 bitrate=N/A speed=20.2x    frame=34039 fps=485 q=-0.0 size=N/A time=00:23:39.70 bitrate=N/A speed=20.2x    frame=34278 fps=485 q=-0.0 size=N/A time=00:23:49.67 bitrate=N/A speed=20.2x    frame=34519 fps=484 q=-0.0 size=N/A time=00:23:59.72 bitrate=N/A speed=20.2x    [Parsed_ssim_10 @ 000002240dc59300] SSIM Y:0.996037 (24.019288) U:0.995414 (23.385616) V:0.995160 (23.151821) All:0.995787 (23.753835)
[out#0/null @ 0000022477598ec0] video:14873KiB audio:270688KiB subtitle:0KiB other streams:0KiB global headers:0KiB muxing overhead: unknown
frame=34613 fps=485 q=-0.0 Lsize=N/A time=00:24:03.65 bitrate=N/A speed=20.2x    
